<svg width="88" height="88" viewBox="0 0 88 88" fill="none" xmlns="http://www.w3.org/2000/svg">
<g id="Group 19">
<g id="Bitmap">
<circle id="Mask" cx="44" cy="44" r="44" fill="#36536B"/>
<mask id="mask0_0_3380" style="mask-type:alpha" maskUnits="userSpaceOnUse" x="0" y="0" width="88" height="88">
<circle id="Mask_2" cx="44" cy="44" r="44" fill="white"/>
</mask>
<g mask="url(#mask0_0_3380)">
</g>
</g>
<path id="Combined Shape" fill-rule="evenodd" clip-rule="evenodd" d="M60.5606 37.6828V37.9638C60.5606 38.3936 60.2121 38.7421 59.7823 38.7421H28.1745C27.7447 38.7421 27.3962 38.3936 27.3962 37.9638V37.6828C27.3962 35.2111 29.3998 33.2075 31.8715 33.2075H56.0854C58.557 33.2075 60.5606 35.2111 60.5606 37.6828ZM27.3962 42.2444V50.8274C27.3962 53.299 29.3998 55.3026 31.8715 55.3026H56.0854C58.557 55.3026 60.5606 53.299 60.5606 50.8274V42.2444C60.5606 41.8146 60.2121 41.4661 59.7823 41.4661H28.1745C27.7447 41.4661 27.3962 41.8146 27.3962 42.2444ZM35.6765 47.6926H33.6011C32.8488 47.6926 32.239 47.0828 32.239 46.3305C32.239 45.5783 32.8488 44.9685 33.6011 44.9685H35.6765C36.4288 44.9685 37.0386 45.5783 37.0386 46.3305C37.0386 47.0828 36.4288 47.6926 35.6765 47.6926Z" fill="white"/>
</g>
</svg>
