<svg width="88" height="88" viewBox="0 0 88 88" fill="none" xmlns="http://www.w3.org/2000/svg">
<circle cx="44" cy="44" r="44" fill="#36536B"/>
<mask id="mask0_0_3351" style="mask-type:alpha" maskUnits="userSpaceOnUse" x="0" y="0" width="88" height="88">
<circle cx="44" cy="44" r="44" fill="white"/>
</mask>
<g mask="url(#mask0_0_3351)">
</g>
<path fill-rule="evenodd" clip-rule="evenodd" d="M49.8061 26.0507L47.23 33.5589H32.5581L29.9817 26.0507L34.2514 23.2451L37.0727 25.0993L39.8941 23.2451L42.7154 25.0993L45.5368 23.2451L49.8061 26.0507ZM33.0424 35.9772H46.7458V38.3956H33.0424V35.9772ZM45.6174 50.003H51.7638C51.6369 49.6485 51.4918 49.2978 51.3271 48.9521L47.4517 40.8139H32.3365L28.461 48.9521C26.8462 52.3433 27.0792 56.2644 29.0847 59.4402C31.09 62.6164 34.5297 64.5127 38.2861 64.5127H41.502C42.0744 64.5127 42.6414 64.468 43.199 64.3821V57.258H45.6174V50.003ZM42.8902 53.8668C42.7378 54.1763 42.5372 54.4301 42.2885 54.6275C42.0398 54.8252 41.7558 54.9745 41.4365 55.0752C41.1173 55.1756 40.7867 55.2374 40.4451 55.2597V56.6132H39.5544V55.2374C39.0418 55.1926 38.533 55.0919 38.0283 54.9354C37.5233 54.7786 37.0705 54.5812 36.6697 54.3422L37.6051 52.4295C37.8057 52.5564 38.021 52.6758 38.2512 52.7875C38.4442 52.8845 38.6687 52.9796 38.925 53.0728C39.1813 53.1663 39.4429 53.2311 39.7102 53.2683V52.2841C39.4801 52.2246 39.2499 52.1537 39.0197 52.0716C38.6706 51.9522 38.3699 51.8238 38.1177 51.6856C37.8652 51.5477 37.6571 51.3912 37.494 51.2158C37.3306 51.0408 37.21 50.8411 37.1319 50.6176C37.0538 50.3937 37.0148 50.1365 37.0148 49.8456C37.0148 49.4429 37.0819 49.0868 37.2154 48.7773C37.3492 48.4681 37.5308 48.2012 37.761 47.9776C37.9911 47.7538 38.2603 47.5749 38.5686 47.4405C38.8768 47.3064 39.2052 47.2207 39.5544 47.1833V46.0536H40.4454V47.1946C40.6903 47.2242 40.9277 47.2692 41.1582 47.329C41.3883 47.3885 41.609 47.4575 41.8209 47.5356C42.0325 47.614 42.2312 47.6961 42.4166 47.7818C42.6024 47.8677 42.773 47.948 42.9292 48.0223L41.9935 49.8232C41.8301 49.719 41.6519 49.6221 41.4589 49.5323C41.2955 49.4505 41.1116 49.374 40.9076 49.3031C40.7032 49.2323 40.4973 49.1784 40.2892 49.141V50.1475C40.3563 50.163 40.4268 50.1831 40.5011 50.2092C40.5751 50.2354 40.6532 50.2596 40.735 50.282C41.0987 50.3937 41.4271 50.5169 41.7205 50.651C42.0139 50.7854 42.2646 50.9438 42.4724 51.1264C42.6802 51.3093 42.8401 51.5313 42.9512 51.792C43.0627 52.0533 43.1184 52.37 43.1184 52.7431C43.1184 53.183 43.0422 53.5576 42.8902 53.8668ZM39.2647 49.4873C39.2647 49.5994 39.3018 49.6907 39.3762 49.7615C39.4505 49.8327 39.5616 49.8979 39.7102 49.9574V49.1073C39.4133 49.1444 39.2647 49.2713 39.2647 49.4873ZM40.2892 52.4743V53.302C40.4677 53.2872 40.5937 53.2497 40.668 53.1902C40.7423 53.1304 40.7794 53.0523 40.7794 52.9553C40.7794 52.8508 40.735 52.7595 40.6456 52.6811C40.5565 52.603 40.4378 52.5341 40.2892 52.4743ZM48.0357 52.4214H60.5298V57.258H48.0357V52.4214ZM58.1118 59.6761H45.6174V64.5127H58.1118V59.6761Z" fill="#EDF3F8"/>
</svg>
